<?xml version="1.0" encoding="utf-8"?>
<!-- Generator: Adobe Illustrator 27.10.0, SVG Export Plug-In . SVG Version: 6.00 Build 0)  -->
<svg version="1.1" id="Ebene_1" xmlns="http://www.w3.org/2000/svg" xmlns:xlink="http://www.w3.org/1999/xlink" x="0px" y="0px"
	 viewBox="0 0 659.58 439.34" style="enable-background:new 0 0 659.58 439.34;" xml:space="preserve">
<style type="text/css">
	.st0{fill-rule:evenodd;clip-rule:evenodd;fill:#8FBF22;}
	.st1{fill:#8FBF22;}
	.st2{fill:#706F6F;}
	.st3{fill:#575756;}
</style>
<g>
	<g>
		<path class="st0" d="M250.97,166.87c0,0-36.17,14.39-17.47,44.4C252.97,205.41,258.79,190.61,250.97,166.87z"/>
	</g>
	<g>
		<path class="st0" d="M210.38,145.9c0,0-27.19,27.85,2.1,47.66C227.88,180.3,227.18,164.41,210.38,145.9z"/>
	</g>
	<g>
		<path class="st0" d="M246.14,131.01c0,0-28.82,11.47-13.92,35.38C247.73,161.73,252.37,149.93,246.14,131.01z"/>
	</g>
	<g>
		<path class="st0" d="M282.24,150c0,0-26.81,4.1-18.82,27.4C277.56,176.48,283.83,167.35,282.24,150z"/>
	</g>
	<g>
		<path class="st0" d="M275.5,123.47c0,0-23.46,4.43-15.71,24.68C272.19,146.91,277.43,138.68,275.5,123.47z"/>
	</g>
	<g>
		<path class="st0" d="M276.76,192.63c0,0-17.18-2.82-16.93,13C268.64,207.87,274.29,203.54,276.76,192.63z"/>
	</g>
	<g>
		<path class="st0" d="M305.84,144.63c0,0-17.18-2.82-16.93,13C297.73,159.87,303.37,155.54,305.84,144.63z"/>
	</g>
	<g>
		<path class="st0" d="M300.39,223.83c0,0-9.66-14.49-21.05-3.51C283.71,228.29,290.72,229.46,300.39,223.83z"/>
	</g>
	<g>
		<path class="st0" d="M313.43,193.82c0,0-24.91-10.73-30.48,13.27C295.43,213.79,305.58,209.37,313.43,193.82z"/>
	</g>
	<g>
		<path class="st0" d="M308.7,168.69c0,0-22.62-5.77-24.12,15.38C296.08,188.1,304.12,182.97,308.7,168.69z"/>
	</g>
	<g>
		<path class="st0" d="M323.31,218.37c0,0-9.66-14.49-21.05-3.51C306.63,222.83,313.65,224,323.31,218.37z"/>
	</g>
	<g>
		<path class="st0" d="M173.7,134.12c0,0-7.61,26.03,16.88,28.63C195.72,149.56,190.1,140.02,173.7,134.12z"/>
	</g>
	<g>
		<path class="st0" d="M148.24,140.28c0,0-1.2,20.73,17.53,18.46C167.33,148.01,161.49,141.86,148.24,140.28z"/>
	</g>
	<g>
		<path class="st0" d="M167.96,168.11c0,0-1.16,28.77,24.75,25.17C194.61,178.36,186.36,169.97,167.96,168.11z"/>
	</g>
	<g>
		<path class="st0" d="M153.41,194.51c0,0,5.24,23.29,25.22,14.84C176.95,197,168.54,192.05,153.41,194.51z"/>
	</g>
	<g>
		<path class="st0" d="M141.51,165.7c0,0,2.23,18.99,18.85,13.93C160.06,169.66,153.78,165.01,141.51,165.7z"/>
	</g>
	<g>
		<path class="st0" d="M157.09,117.58c0,0-6.04,16.33,9.53,19.1C170.5,128.45,167.32,122.08,157.09,117.58z"/>
	</g>
	<g>
		<path class="st0" d="M189.68,97.91c0,0-12.7,21.73,8.78,29.58C206.05,116.77,203.12,106.9,189.68,97.91z"/>
	</g>
	<g>
		<path class="st0" d="M128.46,184.86c0,0,7.55,15.69,20.36,6.41C145.6,182.77,138.81,180.63,128.46,184.86z"/>
	</g>
	<g>
		<path class="st0" d="M103.61,199.92c0,0,10.88,13.59,21.28,1.67C119.84,194.03,112.75,193.47,103.61,199.92z"/>
	</g>
	<g>
		<path class="st0" d="M125.95,209.21c0,0,14.69,20.45,30.59,4.02C149.83,201.92,139.63,200.58,125.95,209.21z"/>
	</g>
	<g>
		<path class="st0" d="M120.12,235.26c0,0,15.41,11.32,23.05-4.28C135.66,224.39,127.98,225.82,120.12,235.26z"/>
	</g>
	<g>
		<path class="st0" d="M218.83,119.77c0,0-14.49,9.66-3.51,21.05C223.29,136.45,224.46,129.43,218.83,119.77z"/>
	</g>
	<g>
		<path class="st0" d="M248.46,100c0,0-25.05,2.5-18.78,24.49C242.83,124.32,249.09,116.16,248.46,100z"/>
	</g>
	<g>
		<path class="st0" d="M223.62,87.44c0,0-17.66,8.12-7.55,22.6C225.63,106.61,228.15,99.08,223.62,87.44z"/>
	</g>
	<g>
		<path class="st0" d="M122.39,147.52c0,0-1.44,15.49,12.64,14.27C136.48,153.8,132.27,149.04,122.39,147.52z"/>
	</g>
	<path class="st0" d="M147.28,342.06l18.83,6.62c-7.44-10.73-4.9-27.67,4.61-39.48c7.75-9.63,25.15-21.12,32.74-44.86
		c6.63-20.75-8.37-39.57-16.93-47.57c-3.36-3.14-4.65-2.02-1.35,2.02c6.51,8.3,18.29,25.01,12.08,43.75
		C190.19,283.94,138.88,311.92,147.28,342.06z"/>
	<path class="st1" d="M76.01,214.82c0-76.73,62.22-138.93,138.96-138.93c63.47,0,117,42.54,133.62,100.66
		c-15.16-64.02-71.97-111.59-139.74-111.59c-79.38,0-143.72,65.26-143.72,145.76c0,80.5,64.35,145.76,143.72,145.76
		c23.86,0,46.35-5.9,66.15-16.33c-18.17,8.72-38.53,13.6-60.03,13.6C138.22,353.75,76.01,291.55,76.01,214.82z"/>
	<path class="st1" d="M235.49,222.55c1.73,3.78,3.09,8.5,3.69,14.41c6.35-13.92,18.98-17.6,37.92-11.03
		C277.09,225.93,258.21,209.66,235.49,222.55z"/>
	<path class="st2" d="M177.74,321.73c-0.77-2.37,0.53-4.92,2.9-5.69c2.37-0.77,4.92,0.53,5.69,2.9c0.77,2.37-0.53,4.92-2.9,5.69
		C181.06,325.4,178.51,324.1,177.74,321.73z"/>
	<path class="st2" d="M178.22,335.31c-0.62-1.91,0.42-3.97,2.34-4.59c1.91-0.62,3.97,0.43,4.59,2.34c0.62,1.92-0.43,3.97-2.34,4.59
		C180.9,338.27,178.84,337.22,178.22,335.31z"/>
	<path class="st2" d="M200.37,212.65c-1.02-3.14,0.7-6.5,3.83-7.52c3.14-1.02,6.51,0.7,7.52,3.83c1.02,3.14-0.7,6.5-3.83,7.52
		C204.75,217.5,201.39,215.79,200.37,212.65z"/>
	<path class="st2" d="M209.88,232.69c-1.24-3.82,0.85-7.92,4.67-9.17c3.82-1.24,7.92,0.85,9.17,4.67c1.24,3.82-0.85,7.92-4.67,9.17
		C215.22,238.6,211.12,236.51,209.88,232.69z"/>
	<path class="st2" d="M213.82,256.26c-1.49-4.59,1.02-9.52,5.61-11.01c4.59-1.49,9.52,1.02,11.01,5.61
		c1.49,4.59-1.02,9.52-5.61,11.01C220.24,263.37,215.31,260.86,213.82,256.26z"/>
	<path class="st2" d="M209.51,279.52c-1.24-3.82,0.85-7.92,4.67-9.16c3.82-1.24,7.92,0.85,9.17,4.67c1.24,3.82-0.85,7.92-4.67,9.17
		C214.86,285.43,210.75,283.34,209.51,279.52z"/>
	<path class="st2" d="M197.18,297.37c-1.15-3.55,0.79-7.37,4.34-8.52c3.55-1.16,7.37,0.79,8.52,4.34c1.15,3.55-0.79,7.37-4.34,8.52
		C202.15,302.87,198.33,300.93,197.18,297.37z"/>
	<path class="st2" d="M186.35,309.75c-0.9-2.78,0.62-5.77,3.4-6.68c2.78-0.9,5.77,0.62,6.68,3.4c0.9,2.78-0.62,5.77-3.4,6.67
		C190.24,314.05,187.25,312.53,186.35,309.75z"/>
	<path class="st2" d="M182.04,320.33"/>
</g>
<g>
	<path class="st1" d="M279.42,256.98c0,6.93-5.13,11.2-13.41,11.2h-7.11v9.09h-5.85v-31.5h12.96
		C274.29,245.77,279.42,250,279.42,256.98z M273.53,256.98c0-3.96-2.66-6.25-7.79-6.25h-6.84v12.51h6.84
		C270.87,263.23,273.53,260.94,273.53,256.98z"/>
	<path class="st1" d="M313.26,245.77v31.5h-5.85v-13.5h-16.29v13.5h-5.85v-31.5h5.85v13h16.29v-13H313.26z"/>
	<path class="st1" d="M335.31,266.16v11.11h-5.85v-11.02l-12.38-20.47h6.25l9.22,15.34l9.31-15.34h5.76L335.31,266.16z"/>
	<path class="st1" d="M348.14,273.94l2.02-4.54c2.52,2.03,6.53,3.46,10.39,3.46c4.91,0,6.97-1.75,6.97-4.09
		c0-6.79-18.72-2.34-18.72-14.04c0-5.08,4.05-9.4,12.69-9.4c3.78,0,7.74,0.99,10.48,2.79l-1.84,4.54c-2.83-1.67-5.94-2.47-8.68-2.47
		c-4.86,0-6.84,1.89-6.84,4.27c0,6.71,18.67,2.34,18.67,13.91c0,5.04-4.09,9.36-12.73,9.36
		C355.65,277.72,350.75,276.19,348.14,273.94z"/>
	<path class="st1" d="M379.1,245.77h5.85v31.5h-5.85V245.77z"/>
	<path class="st1" d="M391.2,261.52c0-9.32,7.2-16.2,16.96-16.2s16.96,6.84,16.96,16.2c0,9.36-7.2,16.2-16.96,16.2
		S391.2,270.84,391.2,261.52z M419.23,261.52c0-6.44-4.72-11.07-11.07-11.07s-11.07,4.63-11.07,11.07c0,6.43,4.72,11.07,11.07,11.07
		S419.23,267.96,419.23,261.52z"/>
	<path class="st1" d="M471.75,245.77v31.5h-4.81l-17.37-21.33v21.33h-5.8v-31.5h4.82l17.37,21.33v-21.33H471.75z"/>
	<path class="st1" d="M477.96,261.52c0-9.32,7.2-16.2,16.96-16.2s16.96,6.84,16.96,16.2c0,9.36-7.2,16.2-16.96,16.2
		S477.96,270.84,477.96,261.52z M505.99,261.52c0-6.44-4.72-11.07-11.07-11.07s-11.07,4.63-11.07,11.07
		c0,6.43,4.72,11.07,11.07,11.07S505.99,267.96,505.99,261.52z"/>
	<path class="st1" d="M538.71,277.27l-6.43-9.22c-0.41,0.04-0.81,0.04-1.21,0.04h-7.11v9.18h-5.85v-31.5h12.96
		c8.28,0,13.41,4.23,13.41,11.21c0,4.77-2.43,8.28-6.71,9.94l7.25,10.35H538.71z M530.79,250.72h-6.84v12.55h6.84
		c5.13,0,7.79-2.34,7.79-6.3C538.57,253.02,535.92,250.72,530.79,250.72z"/>
	<path class="st1" d="M550.99,245.77h13.77c10.21,0,17.19,6.3,17.19,15.75c0,9.45-6.97,15.75-17.19,15.75h-13.77V245.77z
		 M564.49,272.32c7.02,0,11.56-4.27,11.56-10.8c0-6.53-4.54-10.8-11.56-10.8h-7.65v21.6H564.49z"/>
</g>
<g>
	<path class="st3" d="M442.35,299.2c1.62,0,3.68,1.87,3.74,3.55c0,0.62-0.25,1.12-0.25,1.12c-0.81,2.49-2.62,4.98-4.18,7.17
		c-2.74,3.74-8.41,9.53-13.58,9.53c-1.31,0-3.12-1-3.12-2.87c0-0.87,0.25-1.99,1.18-2.37c0.19,0,0.25,0.06,0.25,0.31
		c-0.06,0.5-0.19,0.69-0.19,1.25c0,0.69,0.44,1.5,1.12,1.5c1.99,0,4.67-1.93,6.92-4.3c3.12-3.24,7.67-10.22,7.67-12.59
		c-1.5,0.37-3.12,1.31-4.8,2.49c-6.11,4.36-12.53,12.34-12.53,12.34c-1,1.12-1.56,1.5-2.12,1.5c-1.31,0-1.37-1.37-1.37-1.5
		c0-1.25,0.44-2.24,1.25-3.3c3.18-5.11,9.72-12.9,15.7-19.82c3.3-3.8,6.04-7.42,6.04-8.04c0-0.12,0-0.31-0.12-0.81
		c0-0.19,0.12-0.31,0.31-0.31c1.25,0,3.55,2.24,3.55,3.74c0,1.25-0.94,2.55-6.48,8.1c-5.36,5.36-8.29,7.85-13.02,13.77
		C430.51,307.49,438.48,299.76,442.35,299.2z"/>
	<path class="st3" d="M456.61,301.26c0.31,0.37,0.44,0.75,0.44,1.06c0,0.56-0.44,1-1.31,1.56c-4.24,2.68-9.41,9.29-10.72,13.71
		c3.18-0.69,11.03-8.54,15.58-12.34c0.31-0.25,0.5-0.31,0.69-0.31c1.06,0,2.87,0.94,2.87,2.24c0,0.69-0.31,0.93-0.31,0.93
		c0,0.37-4.3,9.29-4.42,9.6c0.37,0,0.87,0.06,0.94,0.37c-0.06,0.69-0.81,0.62-1.5,0.87c-3.12,5.05-10.72,16.95-17.57,17.01
		c-1.87,0-2.8-1.06-2.8-2.62c0.06-5.36,11.9-14.08,16.83-15.27l4.42-10.28c-8.79,8.66-12.65,12.4-14.52,12.4
		c-0.69,0-1.43-0.31-1.99-0.87c-0.56-0.56-0.93-1.43-0.93-2.43c0-2.24,1.25-5.36,3.24-8.16c2.06-2.87,4.92-5.92,6.98-7.79
		c1.06-0.93,0.44-1.5,1.12-1.56C454.5,299.39,455.93,300.39,456.61,301.26z M454.5,319.64c-3.37,1.31-13.77,8.97-14.02,13.77
		c0,0.25,0.19,0.37,0.37,0.37c1.81,0,5.11-3.12,6.36-4.36C450.2,326.56,452.63,322.76,454.5,319.64z"/>
	<path class="st3" d="M514.44,292.91c0-4.3-7.6-5.11-11.03-5.11c-7.54,0-15.58,2.62-21.56,7.98c-1.37,1.37-2.49,2.99-2.49,4.92
		c0,1.56,0.81,2.37,1.25,2.99c0.19,0.19,0.25,0.44,0.25,0.5c0,0.19-0.06,0.19-0.19,0.19c-0.19,0-0.75-0.25-1.06-0.5
		c-1.56-1.06-3.74-3.49-3.74-5.73c0-4.3,5.36-8.97,12.9-11.78c4.49-1.62,9.16-2.43,14.46-2.43c6.23,0,13.83,2.43,13.83,10.16
		c0,10.1-16.02,14.4-23.99,14.4c-1.18,0-1.37-0.25-1.5-0.56c0-0.37,0.81-0.75,0.81-0.75C501.17,305.37,514.44,298.7,514.44,292.91z
		 M486.59,319.14c0.25,0,0.31,0.12,0.31,0.19c0,0.25-1.25,0.62-1.68,0.62c-2.06,0-3.99-2.12-3.99-4.36
		c0-8.29,11.9-18.13,19.63-20.56c0.5-0.19,1.18-0.31,1.74-0.31c0.37,0,0.69,0.31,0.69,0.87c0,0.19-0.31,0.44-0.31,0.44
		c-6.79,2.55-17.76,13.15-17.76,21.38C485.22,318.21,485.53,319.14,486.59,319.14z"/>
	<path class="st3" d="M528.15,302.19c0.31,0.37,0.37,0.75,0.37,1.25c0,1.56-0.75,2.8-1.25,2.8c-0.12-0.06-0.12-0.19-0.12-0.25
		c0-0.25,0.12-0.37,0.31-0.69c0.12-0.37,0.31-0.93,0.31-1.18c0-1.31-1.62-1.5-2.49-1.5c-4.05,0-9.97,4.24-13.09,8.23
		c-1.25,1.56-2.99,4.42-3.12,6.23c3.18-3.61,10.97-8.72,10.97-8.72c0.5-0.44,1.12-0.87,1.81-0.87c1,0,2.56,1.81,2.56,2.18
		c-0.06,0.12-0.25,0.12-0.25,0.12c-1.25,0.87-2.24,3.86-2.24,3.93c-0.37,1.18-0.62,2.43-0.62,3.12c0.19,3.12,1.62,2.43,1.62,3.05
		c-0.06,0.12-0.37,0.19-0.62,0.19c-2.68-0.06-3.61-3.18-3.61-4.86c0-2.49,1.12-5.11,1.12-5.11c-1.37,0.81-2.62,1.87-5.3,4.24
		c-4.49,4.05-5.42,6.54-6.29,6.54c-1.06,0-2.31-1.93-2.55-3.18v-0.56c0-7.1,11.53-18.38,18.7-18.38c0.56,0,1.06,0.06,1.37,0.44
		C527.46,300.57,528.15,302.19,528.15,302.19z"/>
	<path class="st3" d="M528.52,317.46c3.99-1.56,16.58-14.89,18.45-14.96c0.81,0,2.43,1.5,2.43,2.43c-0.06,0.69-0.93,1.31-0.93,1.31
		c-5.17,6.04-7.04,10.34-7.1,11.9c0,1.18,0.25,1.31,0.31,1.74c0,0.12-0.06,0.31-0.12,0.31c-1.87-0.31-2.8-1.56-2.8-3.86
		c0.06-2.99,2.99-7.6,5.05-9.85c-10.28,10.16-12.34,13.4-14.58,13.4c-1.5,0-3.49-1.81-3.49-3.74c0-5.73,7.1-13.83,9.47-16.08
		c1.25-1.06,0.56-1.5,1.25-1.56c0.87,0,2.49,1.12,3.12,1.93c0.31,0.44,0.5,0.62,0.5,0.87s-0.19,0.37-0.56,0.69
		C535.44,305.56,529.4,311.85,528.52,317.46z"/>
	<path class="st3" d="M550.52,317.9c2.87,0,12.21-10.03,13.71-10.03c0.06,0,0.12,0.06,0.12,0.19s-0.06,0.31-0.12,0.44
		c-3.3,3.61-10.47,12.21-13.58,12.21c-1.37,0-3.86-1.56-3.86-4.36c0-8.6,15.46-26.17,24.74-31.47c0.69-0.37,1.31-0.69,1.81-0.69
		c1.5,0.25,3.68,2.18,3.68,3.93c0,1.43-1.5,4.17-7.42,10.16c-2.43,2.49-11.53,11.34-15.21,11.53c-0.06,0-0.44-0.06-0.44-0.19
		c0-0.31,3.24-2.37,5.48-4.36c9.85-8.72,15.14-16.7,14.89-16.76c-0.06,0-5.36,3.49-9.66,7.54c-4.42,4.24-14.4,14.58-14.96,21.19
		C549.71,317.9,550.08,317.9,550.52,317.9z"/>
</g>
</svg>
